<svg width="70" height="71" viewBox="0 0 70 71" fill="none" xmlns="http://www.w3.org/2000/svg">
<path d="M58.3894 42.2612C58.3894 38.8158 56.9352 36.0226 55.1412 36.0226C54.6377 36.0226 54.161 36.2428 53.7357 36.6353C53.3105 36.2425 52.8337 36.0226 52.3303 36.0226C50.5362 36.0226 49.082 38.8158 49.082 42.2612C49.082 45.7068 50.5362 48.4998 52.3303 48.4998C52.4569 48.4998 52.582 48.4858 52.7049 48.4586V48.4998H55.3286V48.4887C57.0352 48.3021 58.3894 45.5857 58.3894 42.2612Z" fill="#20233E"/>
<path d="M38.7427 42.2614C38.7427 38.816 37.2885 36.0228 35.4944 36.0228C34.991 36.0228 34.5142 36.243 34.089 36.6356C33.6637 36.2428 33.187 36.0228 32.6835 36.0228C30.8895 36.0228 29.4353 38.816 29.4353 42.2614C29.4353 45.7071 30.8897 48.5 32.6835 48.5C32.8102 48.5 32.9352 48.486 33.0582 48.4588V48.5H35.6819V48.489C37.3885 48.3024 38.7427 45.5859 38.7427 42.2614Z" fill="#1A1E33"/>
<path d="M18.6597 42.2614C18.6597 38.816 17.2055 36.0228 15.4114 36.0228C14.908 36.0228 14.4312 36.243 14.006 36.6356C13.5807 36.2428 13.104 36.0228 12.6005 36.0228C10.8065 36.0228 9.35229 38.816 9.35229 42.2614C9.35229 45.7071 10.8067 48.5 12.6005 48.5C12.7272 48.5 12.8522 48.486 12.9752 48.4588V48.5H15.5989V48.489C17.3055 48.3024 18.6597 45.5859 18.6597 42.2614Z" fill="#1A1E33"/>
<path d="M53.974 31.3132C53.974 31.3132 51.2677 27.8305 48.7269 25.9659C45.3536 23.4902 41.6057 22.4999 41.6057 22.4999H20.4297C20.4297 22.4999 18.2746 22.698 17.2439 22.9949C16.2131 23.2921 14.9014 23.8862 13.4022 24.9756C11.6671 26.2363 9.93541 28.4415 9.5605 29.1347C9.31829 29.5827 8.49075 30.0296 7.93441 30.2905C6.82754 30.5546 6 31.5984 6 32.8481V34.9771V36.5615V42.305C6 44.3286 7.55208 45.9689 9.46677 45.9689H61.0481C62.6264 45.9689 63.9059 44.6167 63.9059 42.9487V34.9771H63.9999L53.974 31.3132Z" fill="#3F4366"/>
<path d="M63.7293 34.8785H41.8403V45.9694H61.0487C62.627 45.9694 63.9065 44.6172 63.9065 42.9492V34.9776H64.0002L63.7293 34.8785Z" fill="#51597D"/>
<path d="M13.9641 31.3132H53.9738C52.6013 29.4934 51.2286 27.6736 49.8561 25.8538C48.2699 23.7506 45.8643 22.5246 43.3195 22.5222L20.4292 22.4999C20.4292 22.4999 18.2742 22.698 17.2434 22.9949C16.3437 23.2543 15.2297 23.7403 13.9639 24.584V31.3132H13.9641Z" fill="#B5DBFB"/>
<path d="M63.646 44.0551H61.3782C60.9068 44.0551 60.4574 43.8447 60.1408 43.4759L59.6879 42.9485C59.3724 42.581 58.9253 42.3709 58.4557 42.3694L50.2184 42.3417C49.7117 42.34 49.2314 42.5815 48.9131 42.9981L48.6067 43.3992C48.2895 43.8143 47.8116 44.0556 47.3068 44.0556H40.2343H37.3296H37.1111C26.8818 44.0573 16.6527 44.0587 6.42334 44.0605C7.01169 45.1981 8.15406 45.97 9.46717 45.97H60.9887C62.1972 45.9697 63.2282 45.1756 63.646 44.0551Z" fill="#2A2F4C"/>
<path d="M28.0611 38.3994C27.8196 38.3994 27.6238 38.1925 27.6238 37.9373V37.145C27.6238 36.8898 27.8196 36.6829 28.0611 36.6829C28.3026 36.6829 28.4984 36.8898 28.4984 37.145V37.9373C28.4982 38.1925 28.3026 38.3994 28.0611 38.3994Z" fill="#262B47"/>
<path d="M51.8517 28.4998C51.1863 27.6176 50.5211 26.7356 49.8558 25.8534C48.3568 23.8662 46.1261 22.6633 43.7377 22.5348L29.1431 28.8371L30.597 31.3128H44.2838L51.8517 28.4998Z" fill="#CFECFF"/>
<path d="M13.6319 31.9953L31.4627 31.3132C31.4627 31.3132 30.083 28.3923 29.035 26.9285C27.74 25.1202 26.6925 23.0665 24.3987 22.4999H20.4301C20.4301 22.4999 18.2751 22.698 17.2443 22.9949C16.2136 23.2921 14.9018 23.8862 13.4026 24.9756C11.7072 26.2076 10.0185 28.3373 9.59229 29.081L13.6319 31.9953Z" fill="#7CB4F2"/>
<path d="M32.8662 33.4923L42.4025 37.3322C43.1614 37.0287 41.3469 35.5453 42.1058 35.2417C38.5 33.8596 35.0611 32.6628 31.4554 31.2807L16.4009 31.1485C15.4718 31.1441 14.3774 30.5701 13.7979 29.8025L13.509 29.4197C12.9569 28.9166 12.2521 28.6398 11.5229 28.6398H9.87964C9.73696 28.8421 9.62699 29.0129 9.56087 29.1348C9.32052 29.5793 8.50435 30.0224 7.94824 30.284C8.87137 31.9751 11.1352 33.228 13.8712 33.4538C20.2027 33.4671 26.5344 33.4798 32.8662 33.4923Z" fill="#878CB2"/>
<path d="M50.892 38.4427H44.0051C42.6855 38.4427 41.6157 37.3122 41.6157 35.9175V35.0758H50.892V38.4427Z" fill="white"/>
<path d="M63.9058 38.3317V35.0763H56.3162V38.4432H63.2031C63.4476 38.443 63.6835 38.4038 63.9058 38.3317Z" fill="white"/>
<path d="M32.6835 48.4998C34.4775 48.4998 35.9318 45.7067 35.9318 42.2612C35.9318 38.8157 34.4775 36.0226 32.6835 36.0226C30.8896 36.0226 29.4353 38.8157 29.4353 42.2612C29.4353 45.7067 30.8896 48.4998 32.6835 48.4998Z" fill="#262B47"/>
<path d="M32.6837 46.6283C33.9395 46.6283 34.9576 44.6731 34.9576 42.2612C34.9576 39.8494 33.9395 37.8942 32.6837 37.8942C31.4279 37.8942 30.4099 39.8494 30.4099 42.2612C30.4099 44.6731 31.4279 46.6283 32.6837 46.6283Z" fill="#C8CFE8"/>
<path d="M31.3465 42.1948C31.3465 40.1477 32.0807 38.4346 33.0705 37.9616C32.9445 37.9199 32.8155 37.8937 32.6833 37.8937C31.4274 37.8937 30.4094 39.8488 30.4094 42.2607C30.4094 44.6727 31.4274 46.6278 32.6833 46.6278C32.8733 46.6278 33.0565 46.5783 33.2331 46.4939C32.1622 46.1401 31.3465 44.3524 31.3465 42.1948Z" fill="#7CB4F2"/>
<path d="M12.601 48.4998C14.395 48.4998 15.8492 45.7067 15.8492 42.2612C15.8492 38.8157 14.395 36.0226 12.601 36.0226C10.8071 36.0226 9.35278 38.8157 9.35278 42.2612C9.35278 45.7067 10.8071 48.4998 12.601 48.4998Z" fill="#262B47"/>
<path d="M12.5998 46.6293C13.8556 46.6293 14.8736 44.6741 14.8736 42.2622C14.8736 39.8503 13.8556 37.8951 12.5998 37.8951C11.344 37.8951 10.3259 39.8503 10.3259 42.2622C10.3259 44.6741 11.344 46.6293 12.5998 46.6293Z" fill="#C8CFE8"/>
<path d="M11.2642 42.1944C11.2642 40.1473 11.9985 38.4342 12.9882 37.9612C12.8622 37.9195 12.7332 37.8933 12.601 37.8933C11.3452 37.8933 10.3271 39.8484 10.3271 42.2604C10.3271 44.6723 11.3452 46.6274 12.601 46.6274C12.791 46.6274 12.9743 46.5779 13.1508 46.4936C12.0799 46.1398 11.2642 44.3521 11.2642 42.1944Z" fill="#7CB4F2"/>
<path d="M41.5122 35.0949H63.9064V35.0596L53.9743 31.3134H31.4866L41.5122 35.0949Z" fill="#4A5175"/>
<path d="M27.062 32.6549H24.1261C23.5396 32.6549 23.0642 32.1526 23.0642 31.5327V30.5424C23.0642 29.9226 23.5396 29.4202 24.1261 29.4202H27.062C27.6485 29.4202 28.1239 29.9226 28.1239 30.5424V31.5327C28.1239 32.1523 27.6485 32.6549 27.062 32.6549Z" fill="#21243F"/>
<path d="M27.8953 32.6548H24.9593C24.3728 32.6548 23.8975 32.1524 23.8975 31.5326V30.5423C23.8975 29.9224 24.3728 29.42 24.9593 29.42H27.8953C28.4818 29.42 28.9571 29.9224 28.9571 30.5423V31.5326C28.9571 32.1522 28.4818 32.6548 27.8953 32.6548Z" fill="#3F4366"/>
<path d="M55.7188 40.8194H53.1889C51.093 40.8194 49.394 39.0238 49.394 36.8088V35.0758H59.5136V36.8088C59.5136 39.0238 57.8147 40.8194 55.7188 40.8194Z" fill="#21243F"/>
<path d="M51.6777 37.4019H57.3309" stroke="white" stroke-width="1.31797" stroke-miterlimit="10" stroke-linecap="round"/>
<path d="M57.3309 38.7133H51.6777" stroke="white" stroke-width="1.31797" stroke-miterlimit="10" stroke-linecap="round"/>
<path d="M51.6777 36.0892H57.3309" stroke="white" stroke-width="1.31797" stroke-miterlimit="10" stroke-linecap="round"/>
<path d="M6.0051 40.7972C7.29873 40.7972 8.3476 39.6887 8.3476 38.3215V37.0343C8.3476 35.6671 7.29873 34.5586 6.0051 34.5586C6.00325 34.5586 6.00162 34.5588 6 34.5588V34.9766V36.5611V40.7969C6.00186 40.7969 6.00348 40.7972 6.0051 40.7972Z" fill="#51597D"/>
<path d="M20.5233 22.4999H20.4296C20.4296 22.4999 20.2445 22.517 19.9612 22.5479V32.6004H20.5233V22.4999Z" fill="#878CB2"/>
<path d="M47.8888 23.9654C47.8705 23.9526 47.8524 23.9391 47.8338 23.9266C47.7654 23.8803 47.696 23.8357 47.6264 23.7915C47.568 23.7543 47.5095 23.7172 47.4503 23.6817C47.377 23.6376 47.3028 23.5951 47.2281 23.5535C47.171 23.5216 47.1137 23.49 47.0559 23.4593C46.9778 23.4179 46.8989 23.3781 46.8193 23.3394C46.7638 23.3124 46.7082 23.286 46.652 23.2602C46.5687 23.222 46.4852 23.1849 46.4008 23.1496C46.3474 23.1273 46.2938 23.1057 46.2398 23.0844C46.1516 23.0496 46.063 23.0158 45.9734 22.9841C45.9226 22.9662 45.8716 22.9493 45.8205 22.9324C45.727 22.9013 45.6331 22.8711 45.5384 22.8436C45.4911 22.8299 45.4435 22.8174 45.3962 22.8044C45.2967 22.7774 45.1969 22.7512 45.0962 22.7279C45.054 22.7181 45.0113 22.71 44.9691 22.7009C44.8626 22.6781 44.7561 22.6563 44.6487 22.6379C44.6132 22.6318 44.5772 22.6274 44.5418 22.6217C44.4269 22.6036 44.3118 22.5867 44.1958 22.5737C44.1717 22.571 44.1474 22.5695 44.123 22.5671C43.8571 22.5396 43.5896 22.5227 43.32 22.5224L41.681 22.5207C41.6334 22.5072 41.606 22.4999 41.606 22.4999H24.3986H20.5238H20.43C20.43 22.4999 20.4263 22.5001 20.4198 22.5009C20.3122 22.5109 18.2481 22.7058 17.2442 22.9952C17.1234 23.03 16.9981 23.0697 16.8695 23.1131C16.8269 23.1276 16.7823 23.1445 16.7387 23.1597C16.6512 23.1906 16.5633 23.2222 16.4726 23.2573C16.4181 23.2784 16.3622 23.3016 16.3065 23.3242C16.2232 23.358 16.1394 23.3929 16.0536 23.4304C15.9924 23.4571 15.9304 23.4853 15.868 23.5137C15.7838 23.5522 15.6984 23.5927 15.6119 23.6349C15.5467 23.6665 15.4815 23.6986 15.4151 23.7324C15.3265 23.7776 15.236 23.8259 15.1453 23.8747C15.0899 23.9046 15.0344 23.9345 14.9785 23.9654H47.8888Z" fill="#878CB2"/>
<path d="M16.7385 23.1597C16.651 23.1906 16.5631 23.2222 16.4724 23.2573C16.4178 23.2784 16.3619 23.3016 16.3065 23.3242C16.2833 23.3335 16.2594 23.3441 16.236 23.3539C16.1756 23.3789 16.1153 23.4034 16.0534 23.4304C15.9921 23.4571 15.9302 23.4853 15.8678 23.5137C15.8559 23.5191 15.8434 23.5253 15.8316 23.5309C15.759 23.5645 15.6859 23.5988 15.6116 23.6349C15.5465 23.6665 15.4813 23.6986 15.4151 23.7324C15.3265 23.7776 15.236 23.8259 15.1453 23.8747C15.0899 23.9046 15.0344 23.9345 14.9785 23.9654H26.8302C26.176 23.2874 25.4081 22.7495 24.3984 22.4999H20.5233H20.4296C20.4296 22.4999 20.4219 22.5006 20.4187 22.5009C20.4147 22.5011 20.4034 22.5023 20.3945 22.5031C20.3829 22.5043 20.3674 22.5058 20.3498 22.5075C20.3428 22.5082 20.3352 22.5089 20.3273 22.5097C20.3015 22.5121 20.2704 22.5153 20.2361 22.5188C20.2298 22.5195 20.2236 22.52 20.2171 22.5207C20.1797 22.5246 20.1373 22.5291 20.0918 22.5337C20.0844 22.5344 20.0774 22.5352 20.0697 22.5362C20.0222 22.5413 19.97 22.547 19.915 22.5531C19.9071 22.5541 19.8995 22.5548 19.8913 22.5558C19.8345 22.5622 19.7735 22.569 19.7104 22.5764C19.7027 22.5774 19.6953 22.5781 19.6874 22.5791C19.6206 22.5869 19.5505 22.5953 19.4784 22.6041C19.4733 22.6048 19.4684 22.6053 19.4633 22.6058C19.3939 22.6144 19.322 22.6235 19.2489 22.6328C19.2378 22.6342 19.2271 22.6355 19.216 22.6369C19.1462 22.646 19.0747 22.6556 19.0025 22.6656C18.9882 22.6676 18.974 22.6695 18.9596 22.6715C18.8896 22.6813 18.8186 22.6914 18.7473 22.7019C18.7304 22.7044 18.7137 22.7068 18.6965 22.7093C18.6283 22.7193 18.5597 22.7301 18.4915 22.7407C18.4713 22.7438 18.4513 22.7468 18.4311 22.75C18.365 22.7605 18.2994 22.7715 18.2339 22.7828C18.2124 22.7865 18.1906 22.7899 18.1692 22.7936C18.1066 22.8046 18.0453 22.8159 17.9843 22.8275C17.9611 22.8319 17.9374 22.8358 17.9145 22.8402C17.8551 22.8517 17.7978 22.8635 17.7407 22.8755C17.7182 22.8802 17.6945 22.8846 17.6725 22.8895C17.6168 22.9015 17.5644 22.914 17.5117 22.9263C17.4906 22.9312 17.4676 22.9361 17.4472 22.9412C17.3758 22.9589 17.3078 22.9768 17.244 22.9952C17.1231 23.03 16.9978 23.0697 16.8693 23.1131C16.8266 23.1273 16.7818 23.1442 16.7385 23.1597Z" fill="#3F4366"/>
</svg>
