<svg width="70" height="71" viewBox="0 0 70 71" fill="none" xmlns="http://www.w3.org/2000/svg">
<path d="M48.0891 25.693H45.1702C44.4881 25.693 43.9353 25.1495 43.9353 24.4793V22.7137C43.9353 22.0433 44.4883 21.5 45.1702 21.5H48.0891C48.7713 21.5 49.324 22.0435 49.324 22.7137V24.4793C49.324 25.1497 48.771 25.693 48.0891 25.693Z" fill="#3F4366"/>
<path d="M49.773 25.693H46.854C46.1719 25.693 45.6191 25.1495 45.6191 24.4793V22.7137C45.6191 22.0433 46.1721 21.5 46.854 21.5H49.773C50.4551 21.5 51.0079 22.0435 51.0079 22.7137V24.4793C51.0081 25.1497 50.4551 25.693 49.773 25.693Z" fill="#4A5175"/>
<path d="M59.6018 45.3121C59.6018 42.9993 58.5522 41.1243 57.2574 41.1243C56.894 41.1243 56.5499 41.2721 56.2429 41.5355C55.9359 41.2718 55.5919 41.1243 55.2285 41.1243C53.9336 41.1243 52.884 42.9993 52.884 45.3121C52.884 47.6249 53.9336 49.5 55.2285 49.5C55.3201 49.5 55.4102 49.4906 55.4989 49.4722V49.5H57.3924V49.4925C58.6244 49.3674 59.6018 47.5439 59.6018 45.3121Z" fill="#20233E"/>
<path d="M45.7058 44.5071C45.7058 41.9631 44.5512 39.9005 43.1268 39.9005C42.727 39.9005 42.3486 40.0631 42.011 40.3531C41.6734 40.0631 41.2949 39.9005 40.8952 39.9005C39.4709 39.9005 38.3162 41.9631 38.3162 44.5071C38.3162 47.0512 39.4707 49.1137 40.8952 49.1137C40.9958 49.1137 41.095 49.1034 41.1928 49.0832V49.1137H43.2757V49.1055C44.6309 48.9678 45.7058 46.9621 45.7058 44.5071Z" fill="#1A1E33"/>
<path d="M18.2741 44.5071C18.2741 41.9631 17.1196 39.9005 15.6951 39.9005C15.2954 39.9005 14.9169 40.0631 14.5793 40.3531C14.2417 40.0631 13.8633 39.9005 13.4635 39.9005C12.0393 39.9005 10.8845 41.9631 10.8845 44.5071C10.8845 47.0512 12.0391 49.1137 13.4635 49.1137C13.5642 49.1137 13.6634 49.1034 13.7612 49.0832V49.1137H15.8441V49.1055C17.199 48.9678 18.2741 46.9621 18.2741 44.5071Z" fill="#1A1E33"/>
<path d="M9.42933 22.8793H49.8138C51.1555 22.8793 52.2431 23.9483 52.2431 25.2671V43.4435C52.2431 44.7623 51.1555 45.8313 49.8138 45.8313H9.42933C8.08759 45.8313 7 44.7623 7 43.4435V25.2671C7 23.9483 8.08759 22.8793 9.42933 22.8793Z" fill="#3F4366"/>
<path d="M62.1223 36.7828L58.4937 24.9571C58.1153 23.7234 56.9591 22.8793 55.6482 22.8793H43.8231L43.8391 22.9314L41.6899 22.769L45.8438 36.783L54.1515 42.3002L55.2905 36.783H62.1223V36.7828Z" fill="#B5DBFB"/>
<path d="M58.4941 24.9572C58.2921 24.2987 57.8672 23.753 57.3168 23.3857L43.8779 30.1494L45.8442 36.7828L46.111 36.96L60.0278 29.9557L58.4941 24.9572Z" fill="#CFECFF"/>
<path d="M60.8874 45.831H45.8438V36.7827H62.2346V44.507C62.2346 45.2381 61.6314 45.831 60.8874 45.831Z" fill="#4A5175"/>
<path d="M52.5598 38.8998H47.589C46.6365 38.8998 45.8645 38.141 45.8645 37.2048V36.6399H52.5598V38.8998Z" fill="white"/>
<path d="M56.3047 38.8998H61.2755C62.228 38.8998 63 38.141 63 37.2048V36.6399H56.3047V38.8998Z" fill="white"/>
<path d="M36.6381 34.6864V22.8793H9.42933C8.08759 22.8793 7 23.9483 7 25.2671V36.4519H34.8418C35.834 36.4519 36.6381 35.6614 36.6381 34.6864Z" fill="#B5DBFB"/>
<path d="M7.00366 25.1966H52.2393C52.2011 23.9107 51.1312 22.8793 49.8136 22.8793H9.42941C8.11182 22.8793 7.04192 23.9107 7.00366 25.1966Z" fill="#3F4366"/>
<path d="M58.494 24.9571C58.1155 23.7234 56.9593 22.8793 55.6484 22.8793H43.8233L43.8393 22.9314L41.6902 22.769L42.4098 25.1965H58.5676L58.494 24.9571Z" fill="#4A5175"/>
<path d="M10.8174 24.5345H9.91919V37.1138H10.8174V24.5345Z" fill="#3F4366"/>
<path d="M17.628 24.5345H16.7297V37.1138H17.628V24.5345Z" fill="#3F4366"/>
<path d="M24.4388 24.5345H23.5405V37.1138H24.4388V24.5345Z" fill="#3F4366"/>
<path d="M31.2496 24.5345H30.3513V37.1138H31.2496V24.5345Z" fill="#3F4366"/>
<path d="M58.0841 38.9898V36.6401V36.6399H50.78V38.9898H58.0841Z" fill="#21243F"/>
<path d="M40.4001 25.3069H39.3886C39.0476 25.3069 38.771 25.5785 38.771 25.9139V36.0657C38.771 36.4008 39.0474 36.6727 39.3886 36.6727H43.3432C43.7533 36.6727 44.0495 36.287 43.9371 35.8995L40.994 25.7477C40.9182 25.4867 40.676 25.3069 40.4001 25.3069Z" fill="#B5DBFB"/>
<path d="M7.3606 44.691C7.78808 45.3736 8.55339 45.8304 9.42915 45.8304H45.8438H49.8136H60.8872C61.5672 45.8304 62.1238 45.334 62.2156 44.691H7.3606Z" fill="#30345A"/>
<path d="M43.4465 35.2689V37.947C43.4465 38.4818 43.0054 38.9156 42.461 38.9156H41.5915C41.0473 38.9156 40.606 38.482 40.606 37.947V35.2689C40.606 34.7341 41.0471 34.3003 41.5915 34.3003H42.461C43.0054 34.3003 43.4465 34.7339 43.4465 35.2689Z" fill="#21243F"/>
<path d="M44.0527 35.2689V37.947C44.0527 38.4818 43.6116 38.9156 43.0672 38.9156H42.1977C41.6535 38.9156 41.2122 38.482 41.2122 37.947V35.2689C41.2122 34.7341 41.6533 34.3003 42.1977 34.3003H43.0672C43.6114 34.3003 44.0527 34.7339 44.0527 35.2689Z" fill="#4A5175"/>
<path d="M40.8952 49.1137C42.3195 49.1137 43.4742 47.0513 43.4742 44.5071C43.4742 41.963 42.3195 39.9005 40.8952 39.9005C39.4708 39.9005 38.3162 41.963 38.3162 44.5071C38.3162 47.0513 39.4708 49.1137 40.8952 49.1137Z" fill="#262B47"/>
<path d="M40.8954 47.7316C41.8925 47.7316 42.7007 46.2879 42.7007 44.507C42.7007 42.7261 41.8925 41.2823 40.8954 41.2823C39.8984 41.2823 39.0901 42.7261 39.0901 44.507C39.0901 46.2879 39.8984 47.7316 40.8954 47.7316Z" fill="#C8CFE8"/>
<path d="M39.8339 44.4584C39.8339 42.947 40.417 41.682 41.2026 41.3328C41.1025 41.302 41.0001 41.2827 40.8952 41.2827C39.8982 41.2827 39.0898 42.7265 39.0898 44.5073C39.0898 46.2881 39.8982 47.7319 40.8952 47.7319C41.046 47.7319 41.1916 47.6953 41.3317 47.633C40.4813 47.3717 39.8339 46.0517 39.8339 44.4584Z" fill="#7CB4F2"/>
<path d="M13.4633 49.1137C14.8876 49.1137 16.0423 47.0513 16.0423 44.5071C16.0423 41.963 14.8876 39.9005 13.4633 39.9005C12.0389 39.9005 10.8843 41.963 10.8843 44.5071C10.8843 47.0513 12.0389 49.1137 13.4633 49.1137Z" fill="#262B47"/>
<path d="M13.4633 47.7316C14.4603 47.7316 15.2686 46.2879 15.2686 44.507C15.2686 42.7261 14.4603 41.2823 13.4633 41.2823C12.4662 41.2823 11.658 42.7261 11.658 44.507C11.658 46.2879 12.4662 47.7316 13.4633 47.7316Z" fill="#C8CFE8"/>
<path d="M12.4025 44.4584C12.4025 42.947 12.9856 41.682 13.7712 41.3328C13.6711 41.302 13.5687 41.2827 13.4638 41.2827C12.4668 41.2827 11.6584 42.7265 11.6584 44.5073C11.6584 46.2881 12.4668 47.7319 13.4638 47.7319C13.6146 47.7319 13.7602 47.6953 13.9003 47.633C13.0499 47.3717 12.4025 46.0517 12.4025 44.4584Z" fill="#7CB4F2"/>
<path d="M57.557 45.2785H52.0935C51.742 45.2785 51.4573 44.9988 51.4573 44.6536C51.4573 44.3085 51.742 44.0288 52.0935 44.0288H57.557C57.9085 44.0288 58.1932 44.3085 58.1932 44.6536C58.1932 44.9988 57.9082 45.2785 57.557 45.2785Z" fill="#30345A"/>
</svg>
