<svg width="70" height="71" viewBox="0 0 70 71" fill="none" xmlns="http://www.w3.org/2000/svg">
<path d="M18.6961 36.1661H10.7816C9.93966 36.1661 9.25708 35.5128 9.25708 34.707V33.0861C9.25708 32.2802 9.93966 31.627 10.7816 31.627H18.6961C19.5381 31.627 20.2206 32.2802 20.2206 33.0861V34.707C20.2206 35.513 19.5381 36.1661 18.6961 36.1661Z" stroke="#51597D" stroke-width="4" stroke-miterlimit="10"/>
<path d="M23.0603 23.5H32.0401C34.0845 23.5 35.742 25.0863 35.742 27.043V37.0523C35.742 39.009 34.0845 40.5953 32.0401 40.5953H23.0603C21.0159 40.5953 19.3584 39.009 19.3584 37.0523V27.043C19.3584 25.0863 21.0156 23.5 23.0603 23.5Z" fill="#3F4366"/>
<path d="M22.3709 42.226C22.3709 39.3135 21.0135 36.9525 19.339 36.9525C18.8692 36.9525 18.4241 37.1385 18.0272 37.4704C17.6303 37.1385 17.1853 36.9525 16.7154 36.9525C15.041 36.9525 13.6836 39.3135 13.6836 42.226C13.6836 45.1386 15.041 47.4996 16.7154 47.4996C16.8337 47.4996 16.9506 47.4876 17.0653 47.4648V47.4996H19.5142V47.4903C21.107 47.3326 22.3709 45.0365 22.3709 42.226Z" fill="#1A1E33"/>
<path d="M44.2215 42.2259C44.2215 39.3134 42.8641 36.9524 41.1896 36.9524C40.7198 36.9524 40.2747 37.1384 39.8778 37.4703C39.4809 37.1384 39.0359 36.9524 38.566 36.9524C36.8916 36.9524 35.5342 39.3134 35.5342 42.2259C35.5342 45.1385 36.8916 47.4994 38.566 47.4994C38.6843 47.4994 38.8012 47.4875 38.9159 47.4646V47.4994H41.3648V47.4902C42.9576 47.3325 44.2215 45.0363 44.2215 42.2259Z" fill="#1A1E33"/>
<path d="M28.3651 45.5095H10.7188C9.16263 45.5095 7.90088 44.3022 7.90088 42.8126V32.9534H28.3651C29.9213 32.9534 31.183 34.1607 31.183 35.6504V42.8128C31.183 44.3022 29.9215 45.5095 28.3651 45.5095Z" fill="#3F4366"/>
<path d="M28.9965 23.5H33.8983C34.625 23.5 35.2141 24.0638 35.2141 24.7593V39.5716C35.2141 40.2672 34.625 40.831 33.8983 40.831H28.9965C28.2697 40.831 27.6807 40.2672 27.6807 39.5716V24.7596C27.6807 24.064 28.2697 23.5 28.9965 23.5Z" fill="#3F4366"/>
<path d="M59.1555 42.7056C59.1555 40.0579 57.9214 37.9116 56.3992 37.9116C55.9721 37.9116 55.5674 38.0809 55.2067 38.3825C54.8457 38.0809 54.4412 37.9116 54.0141 37.9116C52.4919 37.9116 51.2578 40.0579 51.2578 42.7056C51.2578 45.3534 52.4919 47.4996 54.0141 47.4996C54.1218 47.4996 54.2278 47.4888 54.3321 47.468V47.4996H56.5584V47.4911C58.0064 47.3478 59.1555 45.2605 59.1555 42.7056Z" fill="#20233E"/>
<path d="M62.7854 34.7681H47.907V30.3779C47.907 26.5793 44.6896 23.5 40.7207 23.5H33.3813V35.8657C33.3813 37.5225 31.9779 38.8657 30.2468 38.8657H11.6436V42.7407C11.6436 44.2956 12.9606 45.5563 14.5854 45.5563H33.3816H45.4607H47.9072H58.3549H60.664C61.9133 45.5563 62.9259 44.2409 62.9259 42.6184V34.8644H63.0001L62.7854 34.7681Z" fill="#3F4366"/>
<path d="M62.7852 34.7683H45.4604V45.5565H60.6635C61.9128 45.5565 62.9254 44.2411 62.9254 42.6186V34.8646H62.9996L62.7852 34.7683Z" fill="#51597D"/>
<path d="M56.1639 32.573C55.6195 31.2805 55.0748 29.9879 54.5303 28.6956C53.2077 25.5561 50.0252 23.5 46.4883 23.5H40.8737H37.0512H33.9424V27.7438H37.0514V32.573H56.1639Z" fill="#B5DBFB"/>
<path d="M48.5524 23.7393L37.0513 28.8955V32.5728H43.6632L53.9975 27.6511C52.8111 25.6824 50.8356 24.275 48.5524 23.7393Z" fill="#CFECFF"/>
<path d="M53.4064 37.4314H47.5626C46.4427 37.4314 45.5352 36.5625 45.5352 35.491V34.8442H53.4064V37.4314Z" fill="white"/>
<path d="M63.0002 34.5516H57.7036V37.1388H63.0002V34.5516Z" fill="white"/>
<path d="M60.1109 34.5518H51.5239V40.5235C51.5239 41.871 52.6653 42.9634 54.0732 42.9634H57.5616C58.9695 42.9634 60.1109 41.871 60.1109 40.5235V34.5518Z" fill="#21243F"/>
<path d="M40.8084 36.1713C40.6035 36.1713 40.4373 36.0122 40.4373 35.8161V35.2073C40.4373 35.0112 40.6035 34.8523 40.8082 34.8523C41.0131 34.8523 41.1791 35.0114 41.1791 35.2073V35.8161C41.1793 36.0122 41.0133 36.1713 40.8084 36.1713Z" fill="#262B47"/>
<path d="M53.4187 36.8254H58.2157" stroke="white" stroke-width="1.5" stroke-miterlimit="10" stroke-linecap="round"/>
<path d="M58.2157 37.834H53.4187" stroke="white" stroke-width="1.5" stroke-miterlimit="10" stroke-linecap="round"/>
<path d="M53.4187 35.8171H58.2157" stroke="white" stroke-width="1.5" stroke-miterlimit="10" stroke-linecap="round"/>
<path d="M53.4187 39.8903H58.2157" stroke="white" stroke-width="1.5" stroke-miterlimit="10" stroke-linecap="round"/>
<path d="M58.2157 40.8984H53.4187" stroke="white" stroke-width="1.5" stroke-miterlimit="10" stroke-linecap="round"/>
<path d="M53.4187 38.882H58.2157" stroke="white" stroke-width="1.5" stroke-miterlimit="10" stroke-linecap="round"/>
<path d="M62.2711 34.0713L55.8687 31.9524H36.7866L45.294 34.768H62.7896C62.7894 34.4539 62.5814 34.1742 62.2711 34.0713Z" fill="#4A5175"/>
<path d="M45.535 34.8445L39.1405 31.6953L33.4055 31.7694V32.9364L38.427 33.0611L45.6644 36.8658L45.535 34.8445Z" fill="#878CB2"/>
<path d="M51.1682 24.8183C49.7999 23.9782 48.1864 23.5 46.4881 23.5H40.8735H37.051H33.9424V24.8183H51.1682Z" fill="#4A5175"/>
<path d="M10.7187 45.5094H15.1995V44.8905H8.92261C9.4104 45.2769 10.0361 45.5094 10.7187 45.5094Z" fill="#30345A"/>
<path d="M61.5903 44.9141C61.1904 44.9141 60.809 44.7526 60.5404 44.469L60.156 44.0636C59.8882 43.7813 59.5088 43.6198 59.1105 43.6184L52.1206 43.5969C51.6906 43.5956 51.2831 43.7811 51.013 44.1013L50.7528 44.4095C50.4837 44.7286 50.0783 44.9139 49.6498 44.9139H43.6484H41.1837H40.9981C31.5723 44.9153 22.1465 44.9166 12.7209 44.918C13.2286 45.3164 13.8774 45.5559 14.585 45.5559H33.3811H45.4603H47.9068H58.3545H60.6636C61.1967 45.5559 61.6859 45.3148 62.0727 44.9139H61.5903V44.9141Z" fill="#30345A"/>
<path d="M16.7149 47.5001C18.3894 47.5001 19.7468 45.139 19.7468 42.2265C19.7468 39.314 18.3894 36.953 16.7149 36.953C15.0405 36.953 13.6831 39.314 13.6831 42.2265C13.6831 45.139 15.0405 47.5001 16.7149 47.5001Z" fill="#262B47"/>
<path d="M16.7149 45.9177C17.887 45.9177 18.8372 44.2649 18.8372 42.2262C18.8372 40.1874 17.887 38.5347 16.7149 38.5347C15.5427 38.5347 14.5925 40.1874 14.5925 42.2262C14.5925 44.2649 15.5427 45.9177 16.7149 45.9177Z" fill="#C8CFE8"/>
<path d="M15.4671 42.1703C15.4671 40.4401 16.1525 38.9918 17.0764 38.5921C16.9588 38.5568 16.8384 38.5347 16.7149 38.5347C15.5429 38.5347 14.5925 40.1874 14.5925 42.2262C14.5925 44.2649 15.5429 45.9177 16.7149 45.9177C16.8922 45.9177 17.0634 45.8756 17.2279 45.8044C16.2285 45.5055 15.4671 43.9944 15.4671 42.1703Z" fill="#7CB4F2"/>
<path d="M38.5653 47.4997C40.2397 47.4997 41.5971 45.1387 41.5971 42.2262C41.5971 39.3137 40.2397 36.9526 38.5653 36.9526C36.8908 36.9526 35.5334 39.3137 35.5334 42.2262C35.5334 45.1387 36.8908 47.4997 38.5653 47.4997Z" fill="#262B47"/>
<path d="M38.565 45.9177C39.7371 45.9177 40.6873 44.2649 40.6873 42.2262C40.6873 40.1874 39.7371 38.5347 38.565 38.5347C37.3928 38.5347 36.4426 40.1874 36.4426 42.2262C36.4426 44.2649 37.3928 45.9177 38.565 45.9177Z" fill="#C8CFE8"/>
<path d="M37.3176 42.1703C37.3176 40.4401 38.0031 38.9918 38.9269 38.5921C38.8094 38.5568 38.689 38.5347 38.5655 38.5347C37.3934 38.5347 36.4431 40.1874 36.4431 42.2262C36.4431 44.2649 37.3934 45.9177 38.5655 45.9177C38.7428 45.9177 38.914 45.8756 39.0785 45.8044C38.0791 45.5055 37.3176 43.9944 37.3176 42.1703Z" fill="#7CB4F2"/>
<path d="M28.3935 34.5892H7.68754C7.30788 34.5892 7 34.2945 7 33.9311V33.5671C7 33.2037 7.30788 32.9091 7.68754 32.9091H28.3935C28.7732 32.9091 29.0811 33.2037 29.0811 33.5671V33.9311C29.0811 34.2945 28.7732 34.5892 28.3935 34.5892Z" fill="#51597D"/>
<path d="M8.40567 35.6692C8.23095 35.6692 8.06238 35.6929 7.90088 35.7336V40.399C8.06238 40.4395 8.23095 40.4634 8.40567 40.4634C9.50356 40.4634 10.3934 39.6117 10.3934 38.561V37.5717C10.3934 36.5209 9.50333 35.6692 8.40567 35.6692Z" fill="#878CB2"/>
<path d="M38.7978 28.0371C38.0512 25.9509 36.6067 24.3443 34.8404 23.5002H34.406C34.3942 23.5154 34.3781 23.5366 34.3599 23.561C34.2466 23.5215 34.1262 23.5002 34.0013 23.5002H30.3218H28.8934H28.4124V24.8186H23.1924C22.0272 24.8186 21.0828 25.7225 21.0828 26.8376V32.6883H30.3216V32.423H35.2139V31.9148H40.1854C39.7228 30.622 39.2603 29.3294 38.7978 28.0371Z" fill="#7CB4F2"/>
<path d="M30.5681 24.1404H29.405V32.5111H30.5681V24.1404Z" fill="#3F4366"/>
<path d="M36.3273 31.7153H19.3584V32.9238H36.3273V31.7153Z" fill="#878CB2"/>
<path d="M38.5359 33.7159H36.0448C35.5471 33.7159 35.1436 33.3297 35.1436 32.8536V32.0925C35.1436 31.6162 35.5471 31.2302 36.0448 31.2302H38.5359C39.0336 31.2302 39.4369 31.6164 39.4369 32.0925V32.8536C39.4371 33.33 39.0336 33.7159 38.5359 33.7159Z" fill="#21243F"/>
<path d="M39.2427 33.7159H36.7516C36.2538 33.7159 35.8503 33.3297 35.8503 32.8536V32.0925C35.8503 31.6162 36.2538 31.2302 36.7516 31.2302H39.2427C39.7404 31.2302 40.1439 31.6164 40.1439 32.0925V32.8536C40.1439 33.33 39.7404 33.7159 39.2427 33.7159Z" fill="#3F4366"/>
<path d="M36.7349 24.8183C36.1668 24.2749 35.5284 23.8288 34.8404 23.5H34.406C34.3942 23.5151 34.3781 23.5364 34.3599 23.5608C34.2466 23.5212 34.1262 23.5 34.0013 23.5H30.3218H28.8934H23.0601C22.3322 23.5 21.6553 23.7041 21.0828 24.0514V24.8183H36.7349Z" fill="#3F4366"/>
</svg>
