<svg width="70" height="71" viewBox="0 0 70 71" fill="none" xmlns="http://www.w3.org/2000/svg">
<path d="M43.9238 42.1297H23.7663C22.5811 42.1297 21.6201 41.1483 21.6201 39.9379V22.6918C21.6201 21.4814 22.5811 20.5 23.7663 20.5H43.9238C45.109 20.5 46.07 21.4814 46.07 22.6918V39.9379C46.07 41.1483 45.1092 42.1297 43.9238 42.1297Z" fill="#878CB2"/>
<path d="M33.498 20.7712L46.0057 22.0883L31.2737 29.4626L33.498 20.7712Z" fill="#51597D"/>
<path d="M45.1845 45.1613C45.1845 42.2127 43.8967 39.8225 42.3081 39.8225C41.8623 39.8225 41.4401 40.0108 41.0636 40.3468C40.687 40.0108 40.2648 39.8225 39.819 39.8225C38.2304 39.8225 36.9426 42.2127 36.9426 45.1613C36.9426 48.1098 38.2304 50.5 39.819 50.5C39.9312 50.5 40.0421 50.4879 40.151 50.4648V50.5H42.4743V50.4906C43.9852 50.3309 45.1845 48.0064 45.1845 45.1613Z" fill="#1A1E33"/>
<path d="M24.4545 45.1613C24.4545 42.2127 23.1667 39.8225 21.5781 39.8225C21.1324 39.8225 20.7101 40.0108 20.3336 40.3468C19.957 40.0108 19.5348 39.8225 19.089 39.8225C17.5004 39.8225 16.2126 42.2127 16.2126 45.1613C16.2126 48.1098 17.5004 50.5 19.089 50.5C19.2013 50.5 19.3121 50.4879 19.421 50.4648V50.5H21.7439V50.4906C23.2552 50.3309 24.4545 48.0064 24.4545 45.1613Z" fill="#1A1E33"/>
<path d="M32.6685 42.1297H10.1898C8.94463 42.1297 7.93506 41.0987 7.93506 39.827V22.8028C7.93506 21.5311 8.94463 20.5 10.1898 20.5H32.6687C33.9139 20.5 34.9235 21.5311 34.9235 22.8028V39.827C34.9235 41.0987 33.9139 42.1297 32.6685 42.1297Z" fill="#3F4366"/>
<path d="M59.3527 45.6465C59.3527 42.966 58.1818 40.7932 56.7377 40.7932C56.3325 40.7932 55.9485 40.9646 55.6063 41.27C55.2638 40.9646 54.8801 40.7932 54.4748 40.7932C53.0307 40.7932 51.8599 42.966 51.8599 45.6465C51.8599 48.327 53.0307 50.4998 54.4748 50.4998C54.577 50.4998 54.6776 50.4888 54.7766 50.4678V50.4998H56.8887V50.4911C58.2625 50.3461 59.3527 48.233 59.3527 45.6465Z" fill="#20233E"/>
<path d="M48.681 41.7593V33.1666C48.681 29.321 45.6286 26.2036 41.8631 26.2036H34.9001V38.7222C34.9001 40.3996 33.5686 41.7593 31.9263 41.7593H14.2766V45.6822C14.2766 47.2564 15.5261 48.5327 17.0677 48.5327H34.9001H48.681H58.593C59.8636 48.5327 60.8937 47.4808 60.8937 46.183V41.7593H48.681Z" fill="#3F4366"/>
<path d="M62.7966 37.6108H46.3601V48.5324H60.7837C61.9689 48.5324 62.9296 47.2008 62.9296 45.5582V37.7083H63L62.7966 37.6108Z" fill="#51597D"/>
<path d="M56.5143 35.3889C55.9978 34.0803 55.481 32.7718 54.9645 31.4634C53.7096 28.2852 50.6903 26.2036 47.3348 26.2036H42.0081H38.3815H35.4319V30.4999H38.3815V35.3889H56.5143Z" fill="#B5DBFB"/>
<path d="M49.2931 26.4458L38.3813 31.6658V35.3886H44.6543L54.4587 30.406C53.3336 28.413 51.4592 26.9882 49.2931 26.4458Z" fill="#CFECFF"/>
<path d="M41.3556 34.7222C40.8391 33.4137 40.3223 32.1051 39.8058 30.7966C38.972 28.6846 37.3586 27.0581 35.3856 26.2036H34.9004V34.7222H41.3556Z" fill="#7CB4F2"/>
<path d="M53.8984 40.3071H48.3542C47.2917 40.3071 46.4307 39.4275 46.4307 38.3427V37.688H53.8984V40.3071Z" fill="white"/>
<path d="M63.0001 37.392H57.9751V40.0111H63.0001V37.392Z" fill="white"/>
<path d="M60.2592 37.392H52.1125V43.4376C52.1125 44.8017 53.1954 45.9076 54.5311 45.9076H57.8407C59.1764 45.9076 60.2592 44.8017 60.2592 43.4376V37.392Z" fill="#21243F"/>
<path d="M41.9461 39.0316C41.7517 39.0316 41.594 38.8706 41.594 38.6722V38.0559C41.594 37.8574 41.7517 37.6965 41.9459 37.6965C42.1403 37.6965 42.2978 37.8576 42.2978 38.0559V38.6722C42.2982 38.8706 42.1405 39.0316 41.9461 39.0316Z" fill="#262B47"/>
<path d="M14.2806 44.3618C13.239 44.3618 12.3948 43.4996 12.3948 42.4358V41.4343C12.3948 40.3705 13.239 39.5083 14.2806 39.5083C15.3222 39.5083 16.1665 40.3705 16.1665 41.4343V42.4358C16.1665 43.4994 15.322 44.3618 14.2806 44.3618Z" fill="#51597D"/>
<path d="M32.5716 42.8954H10.0927C8.84746 42.8954 7.83789 41.8643 7.83789 40.5926V23.5684C7.83789 22.2967 8.84746 21.2656 10.0927 21.2656H32.5716C33.8168 21.2656 34.8263 22.2967 34.8263 23.5684V40.5926C34.8263 41.8643 33.8168 42.8954 32.5716 42.8954Z" fill="#21243F"/>
<path d="M39.8188 50.5C41.4074 50.5 42.6952 48.1098 42.6952 45.1613C42.6952 42.2127 41.4074 39.8225 39.8188 39.8225C38.2302 39.8225 36.9424 42.2127 36.9424 45.1613C36.9424 48.1098 38.2302 50.5 39.8188 50.5Z" fill="#262B47"/>
<path d="M39.8187 48.8985C40.9308 48.8985 41.8322 47.2253 41.8322 45.1613C41.8322 43.0974 40.9308 41.4242 39.8187 41.4242C38.7067 41.4242 37.8052 43.0974 37.8052 45.1613C37.8052 47.2253 38.7067 48.8985 39.8187 48.8985Z" fill="#C8CFE8"/>
<path d="M38.6349 45.1048C38.6349 43.3532 39.2851 41.887 40.1617 41.4823C40.0501 41.4466 39.9359 41.4242 39.8187 41.4242C38.7068 41.4242 37.8052 43.0974 37.8052 45.1613C37.8052 47.2253 38.7068 48.8985 39.8187 48.8985C39.9869 48.8985 40.1493 48.8559 40.3055 48.7839C39.357 48.4812 38.6349 46.9514 38.6349 45.1048Z" fill="#7CB4F2"/>
<path d="M19.0885 50.5C20.6771 50.5 21.9649 48.1098 21.9649 45.1613C21.9649 42.2127 20.6771 39.8225 19.0885 39.8225C17.5 39.8225 16.2122 42.2127 16.2122 45.1613C16.2122 48.1098 17.5 50.5 19.0885 50.5Z" fill="#262B47"/>
<path d="M19.0882 48.8987C20.2003 48.8987 21.1018 47.2256 21.1018 45.1616C21.1018 43.0976 20.2003 41.4244 19.0882 41.4244C17.9762 41.4244 17.0747 43.0976 17.0747 45.1616C17.0747 47.2256 17.9762 48.8987 19.0882 48.8987Z" fill="#C8CFE8"/>
<path d="M17.9049 45.1048C17.9049 43.3532 18.5552 41.887 19.4317 41.4823C19.3201 41.4466 19.2059 41.4242 19.0887 41.4242C17.9766 41.4242 17.0752 43.0974 17.0752 45.1613C17.0752 47.2253 17.9766 48.8985 19.0887 48.8985C19.257 48.8985 19.4194 48.8559 19.5755 48.7839C18.6271 48.4812 17.9049 46.9514 17.9049 45.1048Z" fill="#7CB4F2"/>
<path d="M53.9104 39.694H58.4614" stroke="white" stroke-width="1.5" stroke-miterlimit="10" stroke-linecap="round"/>
<path d="M58.4614 40.7151H53.9104" stroke="white" stroke-width="1.5" stroke-miterlimit="10" stroke-linecap="round"/>
<path d="M53.9104 38.6735H58.4614" stroke="white" stroke-width="1.5" stroke-miterlimit="10" stroke-linecap="round"/>
<path d="M53.9104 42.7969H58.4614" stroke="white" stroke-width="1.5" stroke-miterlimit="10" stroke-linecap="round"/>
<path d="M58.4614 43.8176H53.9104" stroke="white" stroke-width="1.5" stroke-miterlimit="10" stroke-linecap="round"/>
<path d="M53.9104 41.7758H58.4614" stroke="white" stroke-width="1.5" stroke-miterlimit="10" stroke-linecap="round"/>
<path d="M62.3085 36.9059L56.2343 34.7607H38.1306L46.2018 37.6112H62.8004C62.8004 37.2932 62.6029 37.01 62.3085 36.9059Z" fill="#4A5175"/>
<path d="M46.4307 37.6881L40.3641 34.5L34.9233 34.575V35.7564L39.6872 35.8827L46.5534 39.7344L46.4307 37.6881Z" fill="#878CB2"/>
<path d="M39.7907 36.5457H37.4271C36.9549 36.5457 36.5723 36.1548 36.5723 35.6728V34.9023C36.5723 34.42 36.9551 34.0293 37.4271 34.0293H39.7907C40.2629 34.0293 40.6455 34.4203 40.6455 34.9023V35.6728C40.6457 36.155 40.2629 36.5457 39.7907 36.5457Z" fill="#21243F"/>
<path d="M40.4614 36.5459H38.0979C37.6257 36.5459 37.2429 36.1549 37.2429 35.6729V34.9024C37.2429 34.4202 37.6257 34.0294 38.0979 34.0294H40.4614C40.9335 34.0294 41.3164 34.4204 41.3164 34.9024V35.6729C41.3161 36.1551 40.9335 36.5459 40.4614 36.5459Z" fill="#3F4366"/>
<path d="M45.9472 22.1334H19.308C18.8663 22.1334 18.5083 21.7678 18.5083 21.3167C18.5083 20.8656 18.8663 20.5 19.308 20.5H45.9472C46.3889 20.5 46.7469 20.8656 46.7469 21.3167C46.7469 21.7678 46.3889 22.1334 45.9472 22.1334Z" fill="#878CB2"/>
<path d="M34.4389 22.1334H7.79968C7.35795 22.1334 7 21.7678 7 21.3167C7 20.8656 7.35795 20.5 7.79968 20.5H34.4389C34.8806 20.5 35.2386 20.8656 35.2386 21.3167C35.2386 21.7678 34.8806 22.1334 34.4389 22.1334Z" fill="#51597D"/>
</svg>
