<svg width="70" height="71" viewBox="0 0 70 71" fill="none" xmlns="http://www.w3.org/2000/svg">
<path d="M29.8512 21.2915L29.5747 19.8835C29.5747 19.8835 29.8512 19.3529 31.0697 19.9069C31.7252 20.2048 32.2882 21.0146 32.2882 21.0146L29.8512 21.2915Z" fill="#7CB4F2"/>
<path d="M29.7281 49.8146C29.7281 46.0722 28.0649 42.9898 25.9232 42.5707C24.6272 42.5539 23.3313 42.5373 22.0351 42.5204V45.3233C21.4632 46.5615 21.1213 48.1199 21.1213 49.8146C21.1213 51.5092 21.4632 53.0675 22.0351 54.306V57.1088C23.3311 57.092 24.6271 57.0754 25.9232 57.0586C28.065 56.6394 29.7281 53.5571 29.7281 49.8146Z" fill="#1A1E33"/>
<path d="M22.1182 57.1088C24.4949 57.1088 26.4215 53.8431 26.4215 49.8146C26.4215 45.7862 24.4949 42.5204 22.1182 42.5204C19.7416 42.5204 17.8149 45.7862 17.8149 49.8146C17.8149 53.8431 19.7416 57.1088 22.1182 57.1088Z" fill="#262B47"/>
<path d="M22.1682 53.9186C23.508 53.9186 24.594 52.096 24.594 49.8477C24.594 47.5995 23.508 45.7769 22.1682 45.7769C20.8285 45.7769 19.7424 47.5995 19.7424 49.8477C19.7424 52.096 20.8285 53.9186 22.1682 53.9186Z" fill="#C8CFE8"/>
<path d="M35.7594 38.4496L34.8117 41.2372C34.3329 42.6452 34.4268 44.1848 35.0728 45.5243L38.152 51.908L28.9803 51.7086L23.2979 39.8452L24.195 37.1535L35.7594 38.4496Z" fill="#51597D"/>
<path d="M34.575 53.3537H28.2824C26.5756 53.3537 25.1919 51.97 25.1919 50.2632H36.5567V51.372C36.5567 52.4664 35.6696 53.3537 34.575 53.3537Z" fill="#3F4366"/>
<path d="M36.4074 38.998H23.9458V33.9562H31.4445C34.1854 33.9562 36.4072 36.1782 36.4072 38.9189V38.998H36.4074Z" fill="#878CB2"/>
<path d="M30.725 38.4497L23.4224 37.6312L29.0294 51.8192L33.1176 51.908L30.0382 45.5243C29.3921 44.1848 29.2983 42.6452 29.7771 41.2373L30.725 38.4497Z" fill="#3F4366"/>
<path d="M30.7748 51.5591H25.2916L19.8086 38.2004H25.2916L30.7748 51.5591Z" fill="#3F4366"/>
<path d="M27.6345 50.9611H22.6166C21.6164 50.9611 20.8054 50.1503 20.8054 49.15C20.8054 48.1498 21.6163 47.3388 22.6166 47.3388H27.6345C28.6346 47.3388 29.4456 48.1496 29.4456 49.15C29.4456 50.1501 28.6348 50.9611 27.6345 50.9611Z" fill="#21243F"/>
<path d="M31.1735 38.9979H18.7119V36.3319C18.7119 35.0971 19.6956 34.0871 20.93 34.0545L26.2885 33.9135C28.9864 33.9137 31.1735 36.3 31.1735 38.9979Z" fill="#21243F"/>
<path d="M17.3994 38.4815L16.4976 41.5628C16.2165 42.5231 16.9366 43.484 17.9373 43.484H24.9882C25.8165 43.484 26.4881 42.8124 26.4881 41.984V38.9027C26.4881 38.0744 25.8165 37.4028 24.9882 37.4028H18.8389C18.1728 37.4028 17.5864 37.8422 17.3994 38.4815Z" fill="#21243F"/>
<path d="M27.8711 24.6146L28.5634 20.7377H33.4926L33.2711 24.2822L27.8711 24.6146Z" fill="#7CB4F2"/>
<path d="M38.311 27.3839L45.6219 24.0607C46.4813 23.5713 47.5181 23.7074 48.1142 24.3376C48.7727 25.034 48.5834 26.006 48.5636 26.0994C46.0229 27.4138 43.4825 28.7279 40.9419 30.0423L38.311 27.3839Z" fill="#7CB4F2"/>
<path d="M46.8404 26.8852C47.8191 26.8852 48.6126 26.2157 48.6126 25.3899C48.6126 24.564 47.8191 23.8945 46.8404 23.8945C45.8616 23.8945 45.0681 24.564 45.0681 25.3899C45.0681 26.2157 45.8616 26.8852 46.8404 26.8852Z" fill="#21243F"/>
<path d="M26.9989 34.75H18.1096C17.4672 34.75 16.9465 34.2293 16.9465 33.5869V25.03C16.9465 24.3876 17.4672 23.8669 18.1096 23.8669H26.9988C27.6412 23.8669 28.1619 24.3876 28.1619 25.03V33.5869C28.162 34.2292 27.6412 34.75 26.9989 34.75Z" fill="#D8A235"/>
<path d="M31.1943 34.75H22.3049C21.6625 34.75 21.1418 34.2293 21.1418 33.5869V25.03C21.1418 24.3876 21.6625 23.8669 22.3049 23.8669H31.1941C31.8365 23.8669 32.3572 24.3876 32.3572 25.03V33.5869C32.3573 34.2292 31.8367 34.75 31.1943 34.75Z" fill="#EFB93F"/>
<path d="M41.2465 30.0145L37.8819 24.4069C37.0253 23.7426 35.8353 23.8103 35.0158 24.3654C34.0671 25.0079 34.0216 26.1578 34.0188 26.2761C34.7192 27.1609 35.4013 28.2663 36.0893 29.2989C36.6868 30.1951 37.7614 30.6482 38.8212 30.4556L41.2465 30.0145Z" fill="#7CB4F2"/>
<path d="M34.7665 25.7777L38.0065 24.6146L37.1146 22.9338C36.3365 21.4675 34.801 20.5622 33.1413 20.5914L28.4162 20.6744C27.1569 20.6965 26.0088 21.4001 25.4175 22.5122L22.8865 27.2731L27.3727 25.113L28.0374 27.9376L34.4344 28.0207L34.7665 25.7777Z" fill="#7CB4F2"/>
<path d="M31.2554 32.8354L26.6903 32.348L26.5542 33.8538C26.4645 34.847 27.0898 35.704 27.9604 35.7808L29.3308 35.9018C30.2211 35.9804 31.0281 35.2148 31.125 34.1996L31.2554 32.8354Z" stroke="#70757A" stroke-width="0.5599" stroke-miterlimit="10"/>
<path d="M37.3831 31.6948L38.18 31.009L37.3831 30.2029L36.2156 30.3418" fill="url(#paint0_linear_144_3246)"/>
<path d="M35.565 43.0206L35.0647 46.5511L35.2036 47.4685H36.8716L37.5666 46.9404L38.1225 44.1604L35.565 43.0206Z" fill="#5F6368"/>
<path d="M40.0038 47.4004L37.5044 46.2723C37.2201 46.3121 37.0283 46.5085 36.9214 46.6564C36.8461 46.7608 36.7208 46.8183 36.5858 46.8066L35.9634 46.753C35.4001 46.7104 35.1864 46.3953 35.1051 46.1635L34.6896 47.7845C34.5385 48.3738 35.0439 48.9723 35.672 48.9481L39.8141 48.7878C40.5873 48.7581 40.7281 47.7273 40.0038 47.4004Z" fill="#34A853"/>
<path d="M40.0038 47.4004L37.5044 46.2723C37.2201 46.3121 37.0283 46.5085 36.9214 46.6564C36.8461 46.7608 36.7208 46.8183 36.5858 46.8066L35.9634 46.753C35.4001 46.7104 35.1864 46.3953 35.1051 46.1635L34.6896 47.7845C34.5385 48.3738 35.0439 48.9723 35.672 48.9481L39.8141 48.7878C40.5873 48.7581 40.7281 47.7273 40.0038 47.4004Z" fill="#1A1E33"/>
<path d="M31.8324 43.1666L31.332 46.6971L31.4711 47.6145H33.1389L33.8339 47.0864L34.39 44.3064L31.8324 43.1666Z" fill="#5F6368"/>
<path d="M36.5204 48.7924L34.021 47.6644C33.7367 47.7042 33.5447 47.9005 33.438 48.0484C33.3627 48.1528 33.2374 48.2103 33.1024 48.1987L32.48 48.145C31.9167 48.1024 31.703 47.7873 31.6217 47.5555L31.2062 49.1765C31.0551 49.7658 31.5605 50.3644 32.1886 50.3401L36.3307 50.1798C37.1039 50.1501 37.2449 49.1194 36.5204 48.7924Z" fill="#51597D"/>
<path d="M35.4311 46.7962H38.7542C38.7542 46.7962 39.5019 39.3212 39.5019 38.8209C39.5019 38.3205 40.1351 34.1968 37.7443 33.4185C35.3536 32.64 31.4061 31.8618 31.4061 31.8618L29.4045 34.0857L34.9088 36.8099L35.4311 46.7962Z" fill="#1A1E33"/>
<path d="M23.9654 31.5279C23.9654 31.5279 22.4371 34.8928 24.0395 36.9025C25.1329 38.274 27.4681 38.3296 28.7469 38.4964C30.0257 38.6632 30.8596 38.8299 30.8596 38.8299L30.7789 47.9591C31.5634 49.0016 32.7914 49.0162 33.8527 48.7068C34.6602 48.4713 35.2695 47.6233 35.4313 47.3776C35.8946 44.2269 35.4557 40.1457 35.919 36.995C35.919 36.995 36.3638 34.6598 34.5291 34.1039C33.1153 33.6754 28.6356 32.714 28.6356 32.714L27.8016 30.5457L23.9654 31.5279Z" fill="#262B47"/>
<path d="M44.6945 30.0016L43.5602 27.2299C43.4142 26.8734 43.0675 26.6405 42.6823 26.6405H39.7144C39.6943 26.6405 39.675 26.643 39.6552 26.6443L39.377 26.4723L38.9409 27.0331L38.9438 27.0383C38.764 27.2899 38.7047 27.6269 38.8365 27.9485L39.9708 30.7202C40.1168 31.0767 40.4635 31.3095 40.8487 31.3095H43.8166C44.491 31.3094 44.9499 30.6256 44.6945 30.0016Z" fill="#3F4366"/>
<path d="M46.8305 39.1695C45.4887 35.972 44.1469 32.7745 42.8052 29.5771L37.6415 29.4787C36.3738 29.4545 35.4951 30.7354 35.9738 31.9093L38.081 37.0769C38.7669 38.7589 38.7839 40.6396 38.1284 42.3338L33.8652 53.3538H41.7583C43.4347 49.6545 45.1108 45.955 46.7872 42.2558C47.2302 41.2777 47.2459 40.1594 46.8305 39.1695Z" fill="#3F4366"/>
<path d="M49.7689 38.2549C48.6327 35.5474 47.4965 32.84 46.3603 30.1323C46.2188 29.7951 45.8908 29.574 45.5251 29.5694L39.9967 29.4993C40.0013 29.5076 40.007 29.5154 40.0114 29.5237L37.6414 29.4786C37.4745 29.4754 37.3149 29.4961 37.1639 29.5349L40.812 38.2917C41.4624 39.8413 41.4378 41.592 40.7441 43.1227L36.1082 53.3537H45.0805C46.6202 49.9555 48.1602 46.5573 49.6999 43.159C50.4041 41.6051 50.4292 39.8281 49.7689 38.2549Z" fill="#51597D"/>
<path d="M49.8547 27.4504C49.8547 26.8989 49.4159 26.4525 48.8688 26.4346V26.4313H46.1106V28.4694H48.8688V28.4661C49.4159 28.448 49.8547 28.0016 49.8547 27.4504Z" fill="#51597D"/>
<path d="M46.1438 28.4694C46.7067 28.4694 47.1629 28.0132 47.1629 27.4504C47.1629 26.8875 46.7067 26.4313 46.1438 26.4313C45.581 26.4313 45.1248 26.8875 45.1248 27.4504C45.1248 28.0132 45.581 28.4694 46.1438 28.4694Z" fill="#21243F"/>
<path d="M36.6233 27.5001H38.2184L39.0491 28.5635H40.3783" stroke="#21243F" stroke-width="4.32" stroke-miterlimit="10" stroke-linejoin="round"/>
<path d="M46.1272 27.5999L45.2633 27.5666L44.7647 28.5968L43.3691 28.5636" stroke="#21243F" stroke-width="4.32" stroke-miterlimit="10" stroke-linecap="round" stroke-linejoin="round"/>
<path d="M44.2656 30.74H41.2977C40.9125 30.74 40.5656 30.5072 40.4198 30.1507L39.2855 27.379C39.0301 26.755 39.4892 26.071 40.1634 26.071H43.1313C43.5165 26.071 43.8634 26.3039 44.0092 26.6604L45.1435 29.4321C45.3989 30.0562 44.9398 30.74 44.2656 30.74Z" fill="#51597D"/>
<path d="M37.6757 27.7327C37.6757 27.1812 37.2369 26.7349 36.6899 26.717V26.7136H33.9316V28.7518H36.6899V28.7484C37.2369 28.7305 37.6757 28.2842 37.6757 27.7327Z" fill="#51597D"/>
<path d="M33.9649 28.7518C34.5277 28.7518 34.984 28.2955 34.984 27.7327C34.984 27.1699 34.5277 26.7136 33.9649 26.7136C33.4021 26.7136 32.9458 27.1699 32.9458 27.7327C32.9458 28.2955 33.4021 28.7518 33.9649 28.7518Z" fill="#21243F"/>
<path d="M52.5243 49.8147C52.5243 46.0722 50.861 42.9899 48.7194 42.5708C47.4234 42.5539 46.1274 42.5373 44.8313 42.5205V45.3233C44.2593 46.5616 43.9175 48.1199 43.9175 49.8147C43.9175 51.5093 44.2593 53.0676 44.8313 54.3061V57.1089C46.1272 57.0921 47.4232 57.0754 48.7194 57.0586C50.861 56.6395 52.5243 53.5571 52.5243 49.8147Z" fill="#1A1E33"/>
<path d="M44.9144 57.1089C47.291 57.1089 49.2177 53.8432 49.2177 49.8147C49.2177 45.7862 47.291 42.5205 44.9144 42.5205C42.5377 42.5205 40.6111 45.7862 40.6111 49.8147C40.6111 53.8432 42.5377 57.1089 44.9144 57.1089Z" fill="#262B47"/>
<path d="M44.9641 53.9186C46.3039 53.9186 47.3899 52.096 47.3899 49.8477C47.3899 47.5995 46.3039 45.7769 44.9641 45.7769C43.6244 45.7769 42.5383 47.5995 42.5383 49.8477C42.5383 52.096 43.6244 53.9186 44.9641 53.9186Z" fill="#C8CFE8"/>
<path d="M44.7975 50.3187C44.3598 50.3187 43.9553 50.0344 43.8223 49.5935L41.9281 43.3129C41.7657 42.7742 42.0709 42.2056 42.6096 42.0432C43.1493 41.8807 43.717 42.1856 43.8798 42.7247L45.7739 49.0053C45.9363 49.544 45.6311 50.1126 45.0924 50.275C44.994 50.3048 44.895 50.3187 44.7975 50.3187Z" fill="#51597D"/>
<path d="M35.2094 25.6116L34.2132 25.52L34.3425 23.508C34.4111 22.4413 33.5902 21.4806 32.3464 21.1719L32.6532 20.3363C34.3665 20.7616 35.4971 22.0848 35.4026 23.554L35.2094 25.6116Z" fill="#3F4366"/>
<path d="M45.8625 25.3582L46.328 24.7837C46.7907 24.213 47.6058 24.0382 48.239 24.4104C48.4523 24.5359 48.663 24.7024 48.8455 24.9232C49.5724 25.8028 49.4254 26.643 49.4254 26.643L47.202 26.9457C47.202 26.9457 46.5824 26.0999 46.1723 26.0886C46.0697 26.0857 45.988 26.0525 45.9229 26.0042C45.7203 25.8541 45.7037 25.5542 45.8625 25.3582Z" fill="#EFCB84"/>
<path d="M49.2819 26.8606C49.4581 26.8606 49.6009 26.7178 49.6009 26.5416C49.6009 26.3655 49.4581 26.2227 49.2819 26.2227C49.1057 26.2227 48.9629 26.3655 48.9629 26.5416C48.9629 26.7178 49.1057 26.8606 49.2819 26.8606Z" fill="#EFCB84"/>
<path d="M48.6659 26.9783C48.8396 26.9783 48.9805 26.8375 48.9805 26.6638C48.9805 26.49 48.8396 26.3492 48.6659 26.3492C48.4922 26.3492 48.3513 26.49 48.3513 26.6638C48.3513 26.8375 48.4922 26.9783 48.6659 26.9783Z" fill="#EFCB84"/>
<path d="M48.0463 27.1025C48.22 27.1025 48.3608 26.9616 48.3608 26.7879C48.3608 26.6142 48.22 26.4733 48.0463 26.4733C47.8725 26.4733 47.7317 26.6142 47.7317 26.7879C47.7317 26.9616 47.8725 27.1025 48.0463 27.1025Z" fill="#EFCB84"/>
<path d="M47.4264 27.2267C47.6001 27.2267 47.7409 27.0858 47.7409 26.9121C47.7409 26.7384 47.6001 26.5975 47.4264 26.5975C47.2527 26.5975 47.1118 26.7384 47.1118 26.9121C47.1118 27.0858 47.2527 27.2267 47.4264 27.2267Z" fill="#EFCB84"/>
<path d="M48.8759 25.3398C48.8759 25.3398 47.9745 24.615 47.077 25.2105C46.6555 25.49 46.0266 25.6709 45.7633 25.7292C45.525 25.782 45.387 26.0304 45.471 26.2595C45.534 26.4309 45.7049 26.5383 45.8866 26.5204L46.945 26.3941" fill="#EFCB84"/>
<path d="M28.9512 23.4515L25.2127 26.3593L23.468 33.0054C23.468 33.0054 27.5388 34.6669 32.2742 33.2547C34.2437 32.6673 34.8497 32.6731 34.8497 32.6731L35.0989 25.7777L28.9512 23.4515Z" fill="#7CB4F2"/>
<path d="M24.105 30.6792L24.9634 27.4392L34.268 27.2177L35.2096 27.0516L34.8773 29.8208C34.8773 29.8208 31.7205 30.6516 28.1758 30.9285C25.2472 31.1573 24.105 30.6792 24.105 30.6792Z" fill="#61A3E0"/>
<path d="M26.832 33.7497C28.3476 33.8995 30.2495 33.8583 32.2742 33.2545C34.2437 32.6671 34.8497 32.6729 34.8497 32.6729L34.9328 28.353L35.3482 24.2822L28.8682 24.8637L26.832 33.7497Z" fill="#3F4366"/>
<path d="M28.674 29.3222L27.6771 29.2668L27.4556 30.9837L33.914 30.3685C34.256 30.336 34.5857 30.2242 34.8771 30.0421L35.2094 27.5498L28.674 29.3222Z" fill="#363C63"/>
<path d="M28.0649 28.6023L28.2898 28.6308L34.6003 29.4331L34.1573 29.71L26.5696 30.2084L28.0649 28.6023Z" fill="#7CB4F2"/>
<path d="M34.1574 29.71C34.8609 29.71 35.4312 28.8545 35.4312 27.7993C35.4312 26.744 34.8609 25.8885 34.1574 25.8885C33.4539 25.8885 32.8835 26.744 32.8835 27.7993C32.8835 28.8545 33.4539 29.71 34.1574 29.71Z" fill="#21243F"/>
<path d="M32.3652 27.1365L33.1874 26.3885C33.7686 25.8597 34.659 25.7926 35.2742 26.2814C35.4913 26.4539 35.6993 26.6732 35.8651 26.95C36.501 28.0126 36.2057 28.8898 36.2057 28.8898L33.7712 28.8507C33.7712 28.8507 33.2451 27.8421 32.807 27.7628C32.3688 27.6836 32.3652 27.1365 32.3652 27.1365Z" fill="#EFCB84"/>
<path d="M36.026 29.0673C36.2171 29.0673 36.3721 28.9123 36.3721 28.7212C36.3721 28.5301 36.2171 28.3751 36.026 28.3751C35.8349 28.3751 35.6799 28.5301 35.6799 28.7212C35.6799 28.9123 35.8349 29.0673 36.026 29.0673Z" fill="#EFCB84"/>
<path d="M35.3457 29.0925C35.5342 29.0925 35.687 28.9397 35.687 28.7513C35.687 28.5628 35.5342 28.41 35.3457 28.41C35.1572 28.41 35.0044 28.5628 35.0044 28.7513C35.0044 28.9397 35.1572 29.0925 35.3457 29.0925Z" fill="#EFCB84"/>
<path d="M34.6606 29.1244C34.8491 29.1244 35.0019 28.9716 35.0019 28.7831C35.0019 28.5946 34.8491 28.4418 34.6606 28.4418C34.4721 28.4418 34.3193 28.5946 34.3193 28.7831C34.3193 28.9716 34.4721 29.1244 34.6606 29.1244Z" fill="#EFCB84"/>
<path d="M33.9756 29.1563C34.164 29.1563 34.3168 29.0035 34.3168 28.815C34.3168 28.6265 34.164 28.4737 33.9756 28.4737C33.7871 28.4737 33.6343 28.6265 33.6343 28.815C33.6343 29.0035 33.7871 29.1563 33.9756 29.1563Z" fill="#EFCB84"/>
<path d="M33.6135 26.5152C33.6135 26.5152 34.3952 25.6627 35.3723 26.116C35.8311 26.3289 36.48 26.4127 36.7491 26.4306C36.9926 26.4469 37.1665 26.6716 37.118 26.9108C37.0816 27.0898 36.9289 27.2216 36.7465 27.2315L35.6812 27.2662" fill="#EFCB84"/>
<path d="M26.2096 26.6915L34.7664 25.7777C34.4747 25.8741 33.9483 26.0974 33.5204 26.6085C32.5829 27.7279 33.56 29.5306 33.6035 29.6824C32.7727 29.6824 27.2897 30.3471 25.9604 30.2639L26.2096 26.6915Z" fill="#7CB4F2"/>
<path d="M23.5967 24.9686C24.7472 23.1447 26.5602 20.6526 27.7049 21.3746C28.8496 22.0966 28.8929 25.7598 27.7424 27.5837C26.5918 29.4076 24.7311 30.3007 23.5863 29.5787C22.4414 28.8563 22.4462 26.7924 23.5967 24.9686Z" fill="#7CB4F2"/>
<path d="M25.3788 27.2731L23.5864 29.5786C24.2736 29.9747 25.043 30.2065 25.8348 30.256L25.9606 30.2638L29.7821 28.5191L25.3788 27.2731Z" fill="#7CB4F2"/>
<path d="M32.7311 21.527L33.0358 21.4024C33.0358 21.4024 33.3404 21.7486 33.4096 22.0809C33.4542 22.2952 33.368 22.5793 33.368 22.5793L32.3435 22.7732L31.7065 22.427L32.7311 21.527Z" fill="#6EACE5"/>
<path d="M33.5256 20.7248C33.5262 20.7238 33.6795 20.429 33.6801 20.4279C33.6801 20.4279 33.6895 20.4308 33.7066 20.4355C34.5491 20.6686 35.3672 19.9895 35.3095 19.1175L35.2947 18.8921C35.24 18.1235 35.1853 17.3551 35.1307 16.5866C35.0503 15.4582 33.9925 14.5231 32.7403 14.5461C32.0483 14.5589 31.3498 14.7997 30.8854 15.5378C29.5771 17.617 31.7003 19.1053 29.5825 20.2868C28.4315 20.929 31.6324 21.8212 32.4096 22.8695C32.439 22.8127 33.4959 20.7818 33.5256 20.7248Z" fill="#EFCB84"/>
<path d="M33.917 14.895C34.5906 15.0394 35.0755 15.6225 35.1058 16.3108C35.1325 16.9165 35.2289 17.5526 35.5099 17.6485L35.5265 17.6541C35.8446 17.7628 35.8466 18.212 35.5294 18.3234L34.7376 18.6016L33.1956 16.027L33.917 14.895Z" fill="#EFCB84"/>
<path d="M27.8711 32.1746L26.832 33.7497L32.1081 34.916C32.1081 34.916 34.8773 35.719 37.8681 34.6391C39.4387 34.0719 37.8404 33.5868 37.8404 33.5868L33.8527 32.2575L27.8711 32.1746Z" fill="#3F4366"/>
<path d="M28.7294 20.6684C28.5638 20.6574 28.3671 20.657 28.1479 20.6822C27.8275 20.719 27.5603 20.7986 27.3586 20.8761C27.5918 21.0139 28.107 21.3577 28.4687 22.0195C28.7309 22.4992 28.8699 23.0515 28.8411 23.5979L28.7118 26.0451L29.7719 26.101L29.9012 23.6538C29.9185 23.3312 29.904 22.8606 29.7418 22.326C29.4861 21.4819 29.0001 20.9329 28.7294 20.6684Z" fill="#3F4366"/>
<path d="M32.5302 22.609C32.0161 22.2483 31.5414 22.0553 31.1178 21.7483C30.2065 21.088 29.68 20.2349 29.7354 19.7245C29.6069 19.7593 29.5034 19.8213 29.4355 19.915L29.1775 20.3094C28.8476 20.7648 29.4471 21.7621 30.5166 22.537C31.5069 23.2546 32.4165 23.3054 32.9525 23.2092L32.5302 22.609Z" fill="#6EACE5"/>
<path d="M33.0634 23.0639L33.3681 22.5515L32.6618 22.4546L32.551 22.6207L32.9618 23.2026L33.0634 23.0639Z" fill="#6EACE5"/>
<path d="M31.748 15.9192L31.4158 17.193C31.4158 17.193 33.4097 18.2454 34.5726 18.0792C35.7357 17.9131 35.5264 17.3218 35.5264 17.3218L35.5337 16.6945C35.5383 16.2966 35.22 15.97 34.8221 15.9641L31.748 15.9192Z" fill="#7CB4F2"/>
<path d="M33.4373 17.9408L35.0158 16.3622L35.3758 16.6115L33.7973 18.0793L33.4373 17.9408Z" fill="#CFECFF"/>
<path d="M32.9802 16.9992C33.9239 16.9992 34.8014 16.8916 35.5357 16.7072C35.5369 16.7058 35.5378 16.7046 35.5388 16.7032C35.6116 15.0742 34.2707 13.7316 32.6063 13.7316C32.2659 13.7316 31.9408 13.7907 31.637 13.894H31.6368C31.5556 13.9216 31.4762 13.9522 31.3985 13.9863C31.3967 13.987 31.3949 13.9879 31.3932 13.9886C31.3171 14.0223 31.2428 14.0583 31.1704 14.098C31.1664 14.1001 31.1626 14.1026 31.1586 14.1049C31.0887 14.1436 31.0202 14.1841 30.9539 14.2282C30.9464 14.233 30.9395 14.2385 30.9323 14.2434C30.8698 14.2857 30.8084 14.3292 30.7495 14.3761C30.735 14.3876 30.7218 14.4003 30.7074 14.412C30.6568 14.4538 30.6062 14.4957 30.5588 14.5406C30.0111 15.0565 29.6707 15.7777 29.6707 16.577C29.6707 16.7324 29.6846 16.8843 29.7094 17.0328C29.7388 17.5239 29.8504 18.0067 30.0397 18.4609C30.3856 19.291 31.0767 19.9287 31.9317 20.2068L33.3581 20.6707C33.4563 20.7027 33.5637 20.6636 33.6183 20.576L33.6668 20.4985C33.6893 20.4628 33.681 20.4159 33.6477 20.3899L32.8309 19.75C32.419 19.4274 32.1085 18.9929 31.9365 18.4982C31.9009 18.3961 31.888 18.2875 31.8889 18.1794L31.8994 16.9493C32.2472 16.9808 32.6078 16.9992 32.9802 16.9992Z" fill="#3F4366"/>
<path d="M46.1958 37.0486C47.1375 36.5049 47.3932 35.1848 46.7669 34.1001C46.1406 33.0153 44.8695 32.5768 43.9278 33.1205C42.9861 33.6642 42.7304 34.9843 43.3566 36.069C43.9829 37.1538 45.254 37.5923 46.1958 37.0486Z" fill="white"/>
<path d="M18.9329 29.2858C19.0812 29.1301 19.1374 28.9061 19.0803 28.7018C19.03 28.5216 18.8961 28.3746 18.722 28.3086C18.687 28.2954 18.6472 28.3033 18.6194 28.3292C18.5914 28.3548 18.5805 28.3943 18.5906 28.4307L18.6443 28.6228C18.673 28.7255 18.609 28.8413 18.5067 28.8716C18.4009 28.9029 18.2916 28.8422 18.2618 28.7361L18.2082 28.5441C18.1981 28.5078 18.1682 28.4806 18.1313 28.4739C18.0943 28.4672 18.0566 28.4822 18.0336 28.5126C17.92 28.6641 17.8823 28.8601 17.9329 29.0413C17.9903 29.2463 18.1536 29.4052 18.3593 29.4556L18.9202 31.4637H18.92C18.7726 31.6185 18.7156 31.8434 18.7726 32.0477C18.8229 32.2278 18.9568 32.3749 19.1309 32.4408C19.1659 32.4541 19.2057 32.4462 19.2335 32.4203C19.2613 32.3947 19.2724 32.3552 19.2623 32.3188L19.2086 32.1266C19.1799 32.024 19.2439 31.9081 19.3462 31.8779C19.452 31.8466 19.5613 31.9072 19.5911 32.0134L19.6447 32.2054C19.6548 32.2416 19.6847 32.2689 19.7216 32.2756C19.7586 32.2823 19.7963 32.2673 19.8193 32.2369C19.9327 32.0859 19.9713 31.8922 19.92 31.7082C19.8626 31.5032 19.6993 31.3443 19.4936 31.2939L18.9329 29.2858Z" fill="#51597D"/>
<path d="M18.3727 23.8669H16.1572V26.8576H18.3727V23.8669Z" fill="#D8A235"/>
<path d="M22.2496 23.8669H20.0342V26.8576H22.2496V23.8669Z" fill="#EFB93F"/>
<defs>
<linearGradient id="paint0_linear_144_3246" x1="37.9446" y1="29.6722" x2="36.9532" y2="31.0041" gradientUnits="userSpaceOnUse">
<stop stop-color="#202124"/>
<stop offset="1" stop-color="#202124" stop-opacity="0"/>
</linearGradient>
</defs>
</svg>
