<svg width="70" height="71" viewBox="0 0 70 71" fill="none" xmlns="http://www.w3.org/2000/svg">
<path d="M60.7476 25.0631H22.2649V47.2192H60.7476V25.0631Z" fill="#4A5175"/>
<path d="M46.4565 26.233L47.2663 25.0929L61.03 25.611L47.7723 29.55L46.4565 26.233Z" fill="#30345A"/>
<path d="M61.6584 25.7631H21.3541C21.1655 25.7631 21.0125 25.6063 21.0125 25.4132V23.3141C21.0125 23.121 21.1655 22.9642 21.3541 22.9642H61.6584C61.847 22.9642 62 23.121 62 23.3141V25.4132C62 25.6065 61.847 25.7631 61.6584 25.7631Z" fill="#878CB2"/>
<path d="M61.6584 48.0358H21.3541C21.1655 48.0358 21.0125 47.879 21.0125 47.6859V45.5868C21.0125 45.3937 21.1655 45.2369 21.3541 45.2369H61.6584C61.847 45.2369 62 45.3937 62 45.5868V47.6859C62 47.8793 61.847 48.0358 61.6584 48.0358Z" fill="#878CB2"/>
<path d="M54.5869 33.2786H53.2207V37.01H54.5869V33.2786Z" fill="#30345A"/>
<path d="M57.6656 33.2786H56.2993V37.01H57.6656V33.2786Z" fill="#30345A"/>
<path d="M47.7351 25.0631H9.25244V47.2192H47.7351V25.0631Z" fill="#3F4366"/>
<path d="M12.6678 43.8548H12.6117C12.2499 43.8548 11.9565 43.5544 11.9565 43.1837V28.0082C11.9565 27.6376 12.2499 27.3372 12.6117 27.3372H12.6678C13.0296 27.3372 13.323 27.6376 13.323 28.0082V43.184C13.3228 43.5544 13.0294 43.8548 12.6678 43.8548Z" fill="#30345A"/>
<path d="M17.1976 43.8547H17.1415C16.7797 43.8547 16.4863 43.5543 16.4863 43.1836V28.0081C16.4863 27.6375 16.7797 27.337 17.1415 27.337H17.1976C17.5594 27.337 17.8528 27.6375 17.8528 28.0081V43.1838C17.8528 43.5543 17.5594 43.8547 17.1976 43.8547Z" fill="#30345A"/>
<path d="M21.7271 43.8547H21.6711C21.3092 43.8547 21.0159 43.5543 21.0159 43.1836V28.0081C21.0159 27.6375 21.3092 27.337 21.6711 27.337H21.7271C22.089 27.337 22.3823 27.6375 22.3823 28.0081V43.1838C22.3823 43.5543 22.089 43.8547 21.7271 43.8547Z" fill="#30345A"/>
<path d="M26.2569 43.8547H26.2009C25.839 43.8547 25.5457 43.5543 25.5457 43.1836V28.0081C25.5457 27.6375 25.839 27.337 26.2009 27.337H26.2569C26.6188 27.337 26.9121 27.6375 26.9121 28.0081V43.1838C26.9121 43.5543 26.6188 43.8547 26.2569 43.8547Z" fill="#30345A"/>
<path d="M30.7867 43.8548H30.7306C30.3688 43.8548 30.0754 43.5544 30.0754 43.1837V28.0082C30.0754 27.6376 30.3688 27.3372 30.7306 27.3372H30.7867C31.1485 27.3372 31.4419 27.6376 31.4419 28.0082V43.184C31.4419 43.5544 31.1485 43.8548 30.7867 43.8548Z" fill="#30345A"/>
<path d="M35.3165 43.8547H35.2604C34.8986 43.8547 34.6052 43.5543 34.6052 43.1836V28.0081C34.6052 27.6375 34.8986 27.337 35.2604 27.337H35.3165C35.6783 27.337 35.9717 27.6375 35.9717 28.0081V43.1838C35.9717 43.5543 35.6783 43.8547 35.3165 43.8547Z" fill="#30345A"/>
<path d="M39.8463 43.8547H39.7902C39.4283 43.8547 39.135 43.5543 39.135 43.1836V28.0081C39.135 27.6375 39.4283 27.337 39.7902 27.337H39.8463C40.2081 27.337 40.5015 27.6375 40.5015 28.0081V43.1838C40.5015 43.5543 40.2081 43.8547 39.8463 43.8547Z" fill="#30345A"/>
<path d="M44.376 43.8547H44.32C43.9581 43.8547 43.6648 43.5543 43.6648 43.1836V28.0081C43.6648 27.6375 43.9581 27.337 44.32 27.337H44.376C44.7379 27.337 45.0312 27.6375 45.0312 28.0081V43.1838C45.0312 43.5543 44.7379 43.8547 44.376 43.8547Z" fill="#30345A"/>
<path d="M48.6459 25.7631H8.34161C8.15302 25.7631 8 25.6063 8 25.4132V23.3141C8 23.121 8.15302 22.9642 8.34161 22.9642H48.6459C48.8345 22.9642 48.9875 23.121 48.9875 23.3141V25.4132C48.9875 25.6065 48.8347 25.7631 48.6459 25.7631Z" fill="#30345A"/>
<path d="M48.6459 48.0358H8.34161C8.15302 48.0358 8 47.879 8 47.6859V45.5868C8 45.3937 8.15302 45.2369 8.34161 45.2369H48.6459C48.8345 45.2369 48.9875 45.3937 48.9875 45.5868V47.6859C48.9875 47.8793 48.8347 48.0358 48.6459 48.0358Z" fill="#30345A"/>
</svg>
