<svg width="158" height="32" viewBox="0 0 158 32" fill="none" xmlns="http://www.w3.org/2000/svg">
<path d="M20.079 19.6982H11.9761C11.3015 19.6985 10.6388 19.5212 10.0546 19.1839C9.47041 18.8466 8.98541 18.3614 8.64844 17.7771L5.48206 12.2882H23.6639C23.8169 12.2886 23.9671 12.3294 24.0992 12.4066C24.2314 12.4837 24.3408 12.5944 24.4163 12.7274C24.4919 12.8605 24.531 13.0111 24.5296 13.1641C24.5282 13.3171 24.4863 13.467 24.4083 13.5987L21.2145 19.0532C21.0976 19.2501 20.9314 19.4132 20.7323 19.5263C20.5331 19.6394 20.308 19.6986 20.079 19.6982Z" fill="#0055FF"/>
<path d="M42.7753 12.5695L41.1424 12.4528C40.8571 11.4228 40.4457 10.4319 39.9177 9.50257L40.988 8.26415C41.2833 7.92342 41.4386 7.48349 41.4227 7.03288C41.4068 6.58226 41.2208 6.15439 40.9022 5.83534L38.5798 3.5163C38.2611 3.19695 37.8331 3.01048 37.3823 2.99456C36.9314 2.97864 36.4913 3.13446 36.1509 3.43053L34.9091 4.50429C33.9804 3.98667 32.992 3.5846 31.9657 3.30703L31.8491 1.65695C31.817 1.20735 31.6159 0.786564 31.2862 0.479177C30.9566 0.171789 30.5228 0.00059138 30.072 2.06902e-07H26.7856C26.3346 -0.000217074 25.9004 0.170708 25.5705 0.478256C25.2407 0.785805 25.0399 1.20706 25.0086 1.65695L24.9228 2.8199H0L2.99828 8.13379C3.32681 8.71541 3.80384 9.19939 4.38063 9.53631C4.95743 9.87322 5.61332 10.051 6.2813 10.0515H28.4563C30.0339 10.0515 31.5469 10.6782 32.6625 11.7937C33.7781 12.9093 34.4048 14.4223 34.4048 16C34.4048 17.5777 33.7781 19.0907 32.6625 20.2063C31.5469 21.3218 30.0339 21.9485 28.4563 21.9485H21.6295C20.9416 21.9489 20.2662 22.1317 19.672 22.4782C19.0778 22.8247 18.5861 23.3226 18.247 23.9211L15.2727 29.1801H24.9228L25.0051 30.3431C25.038 30.7929 25.2398 31.2138 25.5701 31.5211C25.9003 31.8284 26.3345 31.9995 26.7856 32H30.0652C30.5169 32.0003 30.9519 31.8296 31.2829 31.5222C31.6138 31.2148 31.8161 30.7935 31.8491 30.3431L31.9691 28.6587C32.9837 28.371 33.9603 27.9633 34.8782 27.4443L36.1647 28.5557C36.5048 28.8508 36.9442 29.006 37.3942 28.9901C37.8443 28.9742 38.2716 28.7884 38.5901 28.47L40.9125 26.1475C41.2319 25.8289 41.4183 25.4009 41.4343 24.95C41.4502 24.4992 41.2944 24.0591 40.9983 23.7187L39.9142 22.4666C40.4422 21.5433 40.8536 20.558 41.1389 19.5334L42.7787 19.4134C43.2277 19.3805 43.6477 19.179 43.9543 18.8495C44.261 18.5199 44.4317 18.0866 44.4322 17.6364V14.3533C44.435 13.901 44.2652 13.4645 43.9573 13.1331C43.6494 12.8016 43.2267 12.6 42.7753 12.5695Z" fill="#0055FF"/>
<path d="M60.3744 6.00234C61.6587 5.97324 62.9346 6.21629 64.1182 6.7155C65.3019 7.21472 66.3665 7.95879 67.242 8.89882C69.0824 10.8257 70.0016 13.1931 69.9995 16.0011C69.9975 18.809 69.0783 21.1765 67.242 23.1033C66.3659 24.042 65.301 24.7845 64.1173 25.2822C62.9337 25.7798 61.6581 26.0212 60.3744 25.9905H52.4323V6.00234H60.3744ZM60.3744 22.2294C61.1613 22.2571 61.9451 22.1172 62.6739 21.8191C63.4027 21.521 64.0599 21.0714 64.6018 20.5002C65.6867 19.3535 66.2291 17.8538 66.2291 16.0011C66.2291 14.1483 65.6867 12.6486 64.6018 11.5019C64.0599 10.9307 63.4027 10.4812 62.6739 10.1831C61.9451 9.88493 61.1613 9.74506 60.3744 9.77271H56.3601V22.2294H60.3744Z" fill="#223D62"/>
<path d="M75.743 19.9722C76.2371 21.7612 77.5752 22.6556 79.7574 22.6556C81.1655 22.6556 82.2318 22.1801 82.9565 21.229L85.927 22.9428C84.519 24.9809 82.4439 25.9999 79.7018 25.9999C77.3385 25.9999 75.4435 25.2855 74.0169 23.8569C73.3142 23.1513 72.7628 22.3098 72.3964 21.3838C72.0301 20.4578 71.8564 19.4669 71.8862 18.4715C71.858 17.4784 72.0306 16.4898 72.3935 15.565C72.7564 14.6402 73.3023 13.7981 73.9984 13.0892C75.4085 11.6482 77.218 10.9277 79.4269 10.9277C80.3951 10.899 81.3582 11.077 82.2522 11.4497C83.1462 11.8224 83.9505 12.3813 84.6116 13.0892C85.9777 14.5425 86.7127 16.4777 86.6558 18.4715C86.6524 18.9802 86.6038 19.4876 86.5107 19.9877L75.743 19.9722ZM75.6844 17.1159H82.9688C82.8242 16.257 82.3597 15.4847 81.6688 14.9543C81.0192 14.4783 80.2322 14.2268 79.4269 14.2379C78.5408 14.2008 77.6688 14.4689 76.9566 14.9976C76.2975 15.5329 75.8473 16.2826 75.6844 17.1159Z" fill="#223D62"/>
<path d="M92.0536 15.3835C92.0536 15.7664 92.3068 16.0752 92.8101 16.3098C93.4066 16.5744 94.027 16.7812 94.6629 16.9274C95.3963 17.1119 96.1181 17.3398 96.8245 17.6099C97.558 17.8924 98.1992 18.3722 98.6772 18.9963C99.1976 19.6961 99.4644 20.552 99.4337 21.4235C99.4337 22.8913 98.8862 24.0235 97.791 24.8202C96.6958 25.6169 95.3278 26.0101 93.6871 25.9998C90.7536 25.9998 88.7536 24.8675 87.6873 22.603L90.8864 20.8028C91.2981 22.038 92.2317 22.6555 93.6871 22.6555C94.9995 22.6555 95.6572 22.2479 95.6572 21.4204C95.6572 21.0406 95.404 20.7318 94.9007 20.494C94.3039 20.2239 93.6838 20.0089 93.0479 19.8517C92.3137 19.6564 91.5919 19.4172 90.8864 19.1353C90.1605 18.8539 89.5215 18.3864 89.0336 17.7797C88.5148 17.117 88.2469 16.2924 88.2771 15.4514C88.2495 14.8135 88.3753 14.1783 88.644 13.5991C88.9126 13.0199 89.3163 12.5136 89.821 12.1226C90.9356 11.2884 92.3019 10.8602 93.6933 10.909C94.8004 10.8957 95.8923 11.1668 96.8646 11.6965C97.8129 12.2166 98.5953 12.9936 99.1219 13.9383L95.9784 15.6521C95.7946 15.2029 95.4763 14.8217 95.0671 14.5607C94.658 14.2998 94.178 14.1719 93.6933 14.1946C93.276 14.1766 92.863 14.2842 92.5075 14.5034C92.3604 14.5965 92.2409 14.7271 92.1611 14.8818C92.0813 15.0365 92.0442 15.2097 92.0536 15.3835Z" fill="#223D62"/>
<path d="M110.766 11.7151H114.821L109.395 25.9999H105.196L99.7671 11.7151H103.825L107.274 21.7107L110.766 11.7151Z" fill="#223D62"/>
<path d="M126.876 11.3165H130.563V25.5982H126.876V23.9122C125.773 25.3039 124.221 25.9997 122.22 25.9997C121.294 26.0057 120.379 25.8137 119.534 25.4366C118.689 25.0595 117.935 24.5061 117.322 23.8134C115.968 22.3691 115.235 20.4507 115.281 18.4713C115.231 16.4876 115.964 14.5641 117.322 13.1168C117.935 12.4242 118.689 11.8707 119.534 11.4936C120.379 11.1166 121.294 10.9246 122.22 10.9306C124.221 10.9306 125.773 11.6264 126.876 13.018V11.3165ZM120.083 21.3554C120.45 21.7283 120.891 22.0211 121.377 22.2156C121.864 22.4101 122.385 22.502 122.908 22.4856C123.434 22.5012 123.957 22.4089 124.446 22.2146C124.934 22.0202 125.378 21.7278 125.749 21.3554C126.123 20.9767 126.416 20.5255 126.61 20.0296C126.804 19.5337 126.894 19.0034 126.876 18.4713C126.896 17.9367 126.806 17.4037 126.612 16.9051C126.418 16.4064 126.125 15.9527 125.749 15.5717C125.377 15.2003 124.933 14.9088 124.445 14.715C123.956 14.5212 123.433 14.4292 122.908 14.4446C122.385 14.428 121.863 14.5194 121.376 14.7134C120.89 14.9073 120.448 15.1995 120.08 15.5717C119.707 15.9546 119.417 16.4089 119.225 16.9073C119.034 17.4057 118.945 17.9377 118.965 18.4713C118.947 19.0024 119.036 19.5316 119.227 20.0273C119.419 20.5229 119.709 20.9747 120.08 21.3554H120.083Z" fill="#223D62"/>
<path d="M137.588 14.1729C137.892 13.3065 138.495 12.5771 139.29 12.1164C140.094 11.6556 141.006 11.4189 141.933 11.4309V15.544C140.878 15.3933 139.805 15.6374 138.919 16.2295C138.032 16.8183 137.588 17.7992 137.588 19.1723V25.9997H133.904V11.7149H137.588V14.1729Z" fill="#223D62"/>
<path d="M146.645 19.9721C147.139 21.7611 148.477 22.6556 150.66 22.6556C152.07 22.6556 153.136 22.18 153.859 21.2289L156.829 22.9427C155.421 24.9808 153.346 25.9998 150.604 25.9998C148.241 25.9998 146.346 25.2855 144.919 23.8568C144.216 23.1515 143.664 22.3101 143.297 21.3841C142.93 20.4581 142.756 19.467 142.785 18.4714C142.757 17.478 142.93 16.4892 143.293 15.5643C143.657 14.6393 144.203 13.7974 144.901 13.0891C146.309 11.6481 148.117 10.9276 150.326 10.9276C151.294 10.8987 152.257 11.0766 153.151 11.4494C154.045 11.8221 154.85 12.3811 155.511 13.0891C156.878 14.5419 157.614 16.4772 157.558 18.4714C157.554 18.9799 157.507 19.4872 157.416 19.9876L146.645 19.9721ZM146.59 17.1158H153.871C153.727 16.2572 153.264 15.4849 152.574 14.9542C151.924 14.4775 151.135 14.226 150.329 14.2378C149.448 14.2035 148.582 14.4715 147.874 14.9975C147.209 15.529 146.753 16.2798 146.59 17.1158Z" fill="#223D62"/>
</svg>
